<mxfile host="app.diagrams.net" agent="Mozilla/5.0 (Windows NT 10.0; Win64; x64) AppleWebKit/537.36 (KHTML, like Gecko) Chrome/127.0.0.0 Safari/537.36" version="24.7.7">
  <diagram name="Page-1" id="sZHfkM0IvigwpGJvcx2V">
    <mxGraphModel dx="1050" dy="522" grid="1" gridSize="10" guides="1" tooltips="1" connect="1" arrows="1" fold="1" page="1" pageScale="1" pageWidth="827" pageHeight="1169" math="0" shadow="0">
      <root>
        <mxCell id="0" />
        <mxCell id="1" parent="0" />
        <mxCell id="hEU5Tb9HG1pzpg3_p1LC-4" style="edgeStyle=orthogonalEdgeStyle;rounded=0;orthogonalLoop=1;jettySize=auto;html=1;exitX=0.5;exitY=1;exitDx=0;exitDy=0;entryX=0.5;entryY=0;entryDx=0;entryDy=0;" edge="1" parent="1" source="hEU5Tb9HG1pzpg3_p1LC-1" target="hEU5Tb9HG1pzpg3_p1LC-3">
          <mxGeometry relative="1" as="geometry" />
        </mxCell>
        <mxCell id="hEU5Tb9HG1pzpg3_p1LC-1" value="début" style="ellipse;whiteSpace=wrap;html=1;fillColor=#d5e8d4;strokeColor=#82b366;" vertex="1" parent="1">
          <mxGeometry x="379" y="30" width="70" height="40" as="geometry" />
        </mxCell>
        <mxCell id="hEU5Tb9HG1pzpg3_p1LC-7" style="edgeStyle=orthogonalEdgeStyle;rounded=0;orthogonalLoop=1;jettySize=auto;html=1;exitX=0.25;exitY=1;exitDx=0;exitDy=0;entryX=0.5;entryY=0;entryDx=0;entryDy=0;" edge="1" parent="1" source="hEU5Tb9HG1pzpg3_p1LC-3" target="hEU5Tb9HG1pzpg3_p1LC-5">
          <mxGeometry relative="1" as="geometry" />
        </mxCell>
        <mxCell id="hEU5Tb9HG1pzpg3_p1LC-8" style="edgeStyle=orthogonalEdgeStyle;rounded=0;orthogonalLoop=1;jettySize=auto;html=1;exitX=0.75;exitY=1;exitDx=0;exitDy=0;entryX=0.5;entryY=0;entryDx=0;entryDy=0;" edge="1" parent="1" source="hEU5Tb9HG1pzpg3_p1LC-3" target="hEU5Tb9HG1pzpg3_p1LC-6">
          <mxGeometry relative="1" as="geometry" />
        </mxCell>
        <mxCell id="hEU5Tb9HG1pzpg3_p1LC-3" value="SI longueur(recetteRecherchée) &amp;lt; 3" style="rounded=1;whiteSpace=wrap;html=1;fillColor=#e1d5e7;strokeColor=#9673a6;" vertex="1" parent="1">
          <mxGeometry x="299" y="90" width="230" height="50" as="geometry" />
        </mxCell>
        <mxCell id="hEU5Tb9HG1pzpg3_p1LC-13" style="edgeStyle=orthogonalEdgeStyle;rounded=0;orthogonalLoop=1;jettySize=auto;html=1;exitX=0.5;exitY=1;exitDx=0;exitDy=0;entryX=0.5;entryY=0;entryDx=0;entryDy=0;" edge="1" parent="1" source="hEU5Tb9HG1pzpg3_p1LC-5" target="hEU5Tb9HG1pzpg3_p1LC-9">
          <mxGeometry relative="1" as="geometry" />
        </mxCell>
        <mxCell id="hEU5Tb9HG1pzpg3_p1LC-5" value="oui" style="ellipse;whiteSpace=wrap;html=1;fillColor=#f8cecc;strokeColor=#b85450;" vertex="1" parent="1">
          <mxGeometry x="310" y="170" width="50" height="40" as="geometry" />
        </mxCell>
        <mxCell id="hEU5Tb9HG1pzpg3_p1LC-15" style="edgeStyle=orthogonalEdgeStyle;rounded=0;orthogonalLoop=1;jettySize=auto;html=1;exitX=0.5;exitY=1;exitDx=0;exitDy=0;entryX=0.5;entryY=0;entryDx=0;entryDy=0;" edge="1" parent="1" source="hEU5Tb9HG1pzpg3_p1LC-6" target="hEU5Tb9HG1pzpg3_p1LC-14">
          <mxGeometry relative="1" as="geometry" />
        </mxCell>
        <mxCell id="hEU5Tb9HG1pzpg3_p1LC-6" value="non" style="ellipse;whiteSpace=wrap;html=1;fillColor=#f8cecc;strokeColor=#b85450;" vertex="1" parent="1">
          <mxGeometry x="460" y="170" width="50" height="40" as="geometry" />
        </mxCell>
        <mxCell id="hEU5Tb9HG1pzpg3_p1LC-11" value="" style="edgeStyle=orthogonalEdgeStyle;rounded=0;orthogonalLoop=1;jettySize=auto;html=1;" edge="1" parent="1" source="hEU5Tb9HG1pzpg3_p1LC-9" target="hEU5Tb9HG1pzpg3_p1LC-10">
          <mxGeometry relative="1" as="geometry" />
        </mxCell>
        <mxCell id="hEU5Tb9HG1pzpg3_p1LC-9" value="retourner []" style="rounded=1;whiteSpace=wrap;html=1;fillColor=#e1d5e7;strokeColor=#9673a6;" vertex="1" parent="1">
          <mxGeometry x="295" y="230" width="80" height="50" as="geometry" />
        </mxCell>
        <mxCell id="hEU5Tb9HG1pzpg3_p1LC-10" value="fin" style="ellipse;whiteSpace=wrap;html=1;fillColor=#d5e8d4;strokeColor=#82b366;" vertex="1" parent="1">
          <mxGeometry x="299" y="310" width="70" height="40" as="geometry" />
        </mxCell>
        <mxCell id="hEU5Tb9HG1pzpg3_p1LC-17" style="edgeStyle=orthogonalEdgeStyle;rounded=0;orthogonalLoop=1;jettySize=auto;html=1;exitX=0.5;exitY=1;exitDx=0;exitDy=0;entryX=0.5;entryY=0;entryDx=0;entryDy=0;" edge="1" parent="1" source="hEU5Tb9HG1pzpg3_p1LC-14" target="hEU5Tb9HG1pzpg3_p1LC-16">
          <mxGeometry relative="1" as="geometry" />
        </mxCell>
        <mxCell id="hEU5Tb9HG1pzpg3_p1LC-14" value="convertir recetteRecherchée en minuscule dans lowerRecetteRecherchée" style="rounded=1;whiteSpace=wrap;html=1;fillColor=#e1d5e7;strokeColor=#9673a6;" vertex="1" parent="1">
          <mxGeometry x="410" y="230" width="190" height="60" as="geometry" />
        </mxCell>
        <mxCell id="hEU5Tb9HG1pzpg3_p1LC-20" style="edgeStyle=orthogonalEdgeStyle;rounded=0;orthogonalLoop=1;jettySize=auto;html=1;exitX=0.5;exitY=1;exitDx=0;exitDy=0;entryX=0.5;entryY=0;entryDx=0;entryDy=0;" edge="1" parent="1" source="hEU5Tb9HG1pzpg3_p1LC-16" target="hEU5Tb9HG1pzpg3_p1LC-19">
          <mxGeometry relative="1" as="geometry" />
        </mxCell>
        <mxCell id="hEU5Tb9HG1pzpg3_p1LC-16" value="initialiser recipesFiltrés = []" style="rounded=1;whiteSpace=wrap;html=1;fillColor=#e1d5e7;strokeColor=#9673a6;" vertex="1" parent="1">
          <mxGeometry x="425" y="310" width="160" height="40" as="geometry" />
        </mxCell>
        <mxCell id="hEU5Tb9HG1pzpg3_p1LC-22" style="edgeStyle=orthogonalEdgeStyle;rounded=0;orthogonalLoop=1;jettySize=auto;html=1;exitX=0.5;exitY=1;exitDx=0;exitDy=0;entryX=0.5;entryY=0;entryDx=0;entryDy=0;" edge="1" parent="1" source="hEU5Tb9HG1pzpg3_p1LC-19" target="hEU5Tb9HG1pzpg3_p1LC-21">
          <mxGeometry relative="1" as="geometry" />
        </mxCell>
        <mxCell id="hEU5Tb9HG1pzpg3_p1LC-19" value="pour chaque recette dans recipes faire :" style="rounded=1;whiteSpace=wrap;html=1;fillColor=#f8cecc;strokeColor=#b85450;" vertex="1" parent="1">
          <mxGeometry x="402.5" y="380" width="205" height="60" as="geometry" />
        </mxCell>
        <mxCell id="hEU5Tb9HG1pzpg3_p1LC-25" style="edgeStyle=orthogonalEdgeStyle;rounded=0;orthogonalLoop=1;jettySize=auto;html=1;exitX=0.5;exitY=1;exitDx=0;exitDy=0;entryX=0.5;entryY=0;entryDx=0;entryDy=0;" edge="1" parent="1" source="hEU5Tb9HG1pzpg3_p1LC-21" target="hEU5Tb9HG1pzpg3_p1LC-23">
          <mxGeometry relative="1" as="geometry" />
        </mxCell>
        <mxCell id="hEU5Tb9HG1pzpg3_p1LC-21" value="titreMatch = titre de la recette dans lowerRecetteRecherchée&lt;div&gt;&lt;br&gt;&lt;div&gt;ingredientMatch = FAUX&lt;/div&gt;&lt;div&gt;&lt;br&gt;&lt;/div&gt;&lt;div&gt;descriptionMatch = description de la recette dans lowerRecetteRecherchée&lt;/div&gt;&lt;div&gt;&lt;br&gt;&lt;/div&gt;&lt;/div&gt;" style="rounded=1;whiteSpace=wrap;html=1;fillColor=#e1d5e7;strokeColor=#9673a6;" vertex="1" parent="1">
          <mxGeometry x="402.5" y="460" width="207.5" height="140" as="geometry" />
        </mxCell>
        <mxCell id="hEU5Tb9HG1pzpg3_p1LC-28" style="edgeStyle=orthogonalEdgeStyle;rounded=0;orthogonalLoop=1;jettySize=auto;html=1;exitX=0.5;exitY=1;exitDx=0;exitDy=0;entryX=0.5;entryY=0;entryDx=0;entryDy=0;" edge="1" parent="1" source="hEU5Tb9HG1pzpg3_p1LC-23" target="hEU5Tb9HG1pzpg3_p1LC-26">
          <mxGeometry relative="1" as="geometry" />
        </mxCell>
        <mxCell id="hEU5Tb9HG1pzpg3_p1LC-23" value="pour chaque ingrédient dans ingrédients de la recette faire :" style="rounded=1;whiteSpace=wrap;html=1;fillColor=#f8cecc;strokeColor=#b85450;" vertex="1" parent="1">
          <mxGeometry x="403.75" y="630" width="205" height="60" as="geometry" />
        </mxCell>
        <mxCell id="hEU5Tb9HG1pzpg3_p1LC-30" style="edgeStyle=orthogonalEdgeStyle;rounded=0;orthogonalLoop=1;jettySize=auto;html=1;exitX=0.25;exitY=1;exitDx=0;exitDy=0;entryX=0.5;entryY=0;entryDx=0;entryDy=0;" edge="1" parent="1" source="hEU5Tb9HG1pzpg3_p1LC-26" target="hEU5Tb9HG1pzpg3_p1LC-27">
          <mxGeometry relative="1" as="geometry" />
        </mxCell>
        <mxCell id="hEU5Tb9HG1pzpg3_p1LC-26" value="si&amp;nbsp; ingrédient contient lowerRecetteRecherchée" style="rounded=1;whiteSpace=wrap;html=1;fillColor=#e1d5e7;strokeColor=#9673a6;" vertex="1" parent="1">
          <mxGeometry x="410" y="710" width="186.25" height="60" as="geometry" />
        </mxCell>
        <mxCell id="hEU5Tb9HG1pzpg3_p1LC-34" style="edgeStyle=orthogonalEdgeStyle;rounded=0;orthogonalLoop=1;jettySize=auto;html=1;exitX=0.5;exitY=1;exitDx=0;exitDy=0;entryX=0.75;entryY=0;entryDx=0;entryDy=0;" edge="1" parent="1" source="hEU5Tb9HG1pzpg3_p1LC-27" target="hEU5Tb9HG1pzpg3_p1LC-33">
          <mxGeometry relative="1" as="geometry" />
        </mxCell>
        <mxCell id="hEU5Tb9HG1pzpg3_p1LC-27" value="oui" style="ellipse;whiteSpace=wrap;html=1;fillColor=#f8cecc;strokeColor=#b85450;" vertex="1" parent="1">
          <mxGeometry x="425" y="800" width="50" height="40" as="geometry" />
        </mxCell>
        <mxCell id="hEU5Tb9HG1pzpg3_p1LC-32" style="edgeStyle=orthogonalEdgeStyle;rounded=0;orthogonalLoop=1;jettySize=auto;html=1;entryX=1;entryY=0.5;entryDx=0;entryDy=0;" edge="1" parent="1" source="hEU5Tb9HG1pzpg3_p1LC-31" target="hEU5Tb9HG1pzpg3_p1LC-26">
          <mxGeometry relative="1" as="geometry">
            <Array as="points">
              <mxPoint x="616" y="800" />
              <mxPoint x="616" y="740" />
            </Array>
          </mxGeometry>
        </mxCell>
        <mxCell id="hEU5Tb9HG1pzpg3_p1LC-31" value="non" style="ellipse;whiteSpace=wrap;html=1;fillColor=#f8cecc;strokeColor=#b85450;" vertex="1" parent="1">
          <mxGeometry x="529" y="800" width="50" height="40" as="geometry" />
        </mxCell>
        <mxCell id="hEU5Tb9HG1pzpg3_p1LC-36" style="edgeStyle=orthogonalEdgeStyle;rounded=0;orthogonalLoop=1;jettySize=auto;html=1;exitX=0.5;exitY=1;exitDx=0;exitDy=0;entryX=0.5;entryY=0;entryDx=0;entryDy=0;" edge="1" parent="1" source="hEU5Tb9HG1pzpg3_p1LC-33" target="hEU5Tb9HG1pzpg3_p1LC-35">
          <mxGeometry relative="1" as="geometry" />
        </mxCell>
        <mxCell id="hEU5Tb9HG1pzpg3_p1LC-33" value="ingrédientMatch = VRAI" style="rounded=1;whiteSpace=wrap;html=1;fillColor=#e1d5e7;strokeColor=#9673a6;" vertex="1" parent="1">
          <mxGeometry x="344" y="860" width="140" height="40" as="geometry" />
        </mxCell>
        <mxCell id="hEU5Tb9HG1pzpg3_p1LC-44" style="edgeStyle=orthogonalEdgeStyle;rounded=0;orthogonalLoop=1;jettySize=auto;html=1;exitX=0.5;exitY=1;exitDx=0;exitDy=0;entryX=0.5;entryY=0;entryDx=0;entryDy=0;" edge="1" parent="1" source="hEU5Tb9HG1pzpg3_p1LC-35" target="hEU5Tb9HG1pzpg3_p1LC-43">
          <mxGeometry relative="1" as="geometry" />
        </mxCell>
        <mxCell id="hEU5Tb9HG1pzpg3_p1LC-35" value="si titreMatch ou ingredientMatch ou descriptionMatch&amp;nbsp;" style="rounded=1;whiteSpace=wrap;html=1;fillColor=#e1d5e7;strokeColor=#9673a6;" vertex="1" parent="1">
          <mxGeometry x="344" y="930" width="140" height="40" as="geometry" />
        </mxCell>
        <mxCell id="hEU5Tb9HG1pzpg3_p1LC-46" style="edgeStyle=orthogonalEdgeStyle;rounded=0;orthogonalLoop=1;jettySize=auto;html=1;exitX=0.5;exitY=1;exitDx=0;exitDy=0;entryX=0.5;entryY=0;entryDx=0;entryDy=0;" edge="1" parent="1" source="hEU5Tb9HG1pzpg3_p1LC-43" target="hEU5Tb9HG1pzpg3_p1LC-45">
          <mxGeometry relative="1" as="geometry" />
        </mxCell>
        <mxCell id="hEU5Tb9HG1pzpg3_p1LC-43" value="ajouter recette à recipesFiltrés" style="rounded=1;whiteSpace=wrap;html=1;fillColor=#e1d5e7;strokeColor=#9673a6;" vertex="1" parent="1">
          <mxGeometry x="344" y="1010" width="140" height="40" as="geometry" />
        </mxCell>
        <mxCell id="hEU5Tb9HG1pzpg3_p1LC-50" style="edgeStyle=orthogonalEdgeStyle;rounded=0;orthogonalLoop=1;jettySize=auto;html=1;exitX=0.5;exitY=1;exitDx=0;exitDy=0;" edge="1" parent="1" source="hEU5Tb9HG1pzpg3_p1LC-45" target="hEU5Tb9HG1pzpg3_p1LC-47">
          <mxGeometry relative="1" as="geometry" />
        </mxCell>
        <mxCell id="hEU5Tb9HG1pzpg3_p1LC-45" value="retourner recipesFiltrés" style="rounded=1;whiteSpace=wrap;html=1;fillColor=#e1d5e7;strokeColor=#9673a6;" vertex="1" parent="1">
          <mxGeometry x="344" y="1070" width="140" height="40" as="geometry" />
        </mxCell>
        <mxCell id="hEU5Tb9HG1pzpg3_p1LC-47" value="fin" style="ellipse;whiteSpace=wrap;html=1;fillColor=#d5e8d4;strokeColor=#82b366;" vertex="1" parent="1">
          <mxGeometry x="379" y="1140" width="70" height="40" as="geometry" />
        </mxCell>
      </root>
    </mxGraphModel>
  </diagram>
</mxfile>
